#!OML:ASF H:\Dans Jumps\Project 1\Capture day 1\Session 1\subject.ASF
:FULLY-SPECIFIED
:DEGREES
175
root 0.445681 16.6609 -15.1585 14.947 -0.363608 -1.17549
lowerback 8.96478 -0.360853 -0.259097
upperback 4.66238 -0.476353 1.99555
thorax -0.177058 -0.265114 2.2475
lowerneck -16.0665 0.200069 -2.13376
upperneck 16.9005 0.711518 0.431613
head 7.86269 0.241245 0.57453
rclavicle 4.57205e-015 -5.36719e-015
rhumerus -24.4257 -19.8607 -76.4404
rradius 21.9928
rwrist 35.9299
rhand -17.2192 -26.0793
rfingers 7.12502
rthumb 9.02379 -55.8663
lclavicle 4.57205e-015 -5.36719e-015
lhumerus -22.8739 12.7554 79.9304
lradius 13.4076
lwrist -6.58877
lhand -24.134 -3.80548
lfingers 7.12502
lthumb 2.3479 26.1613
rfemur -40.2078 -2.35917 19.7317
rtibia 47.3164
rfoot -24.7884 -8.63019
rtoes 1.2719
lfemur -40.2867 8.52776 -20.3696
ltibia 46.369
lfoot -22.9016 11.7488
ltoes -5.00242
176
root 0.443825 16.6348 -15.1698 15.2292 -0.239432 -1.15718
lowerback 9.28504 -0.391191 -0.251412
upperback 4.64772 -0.512217 2.01492
thorax -0.366142 -0.281733 2.27004
lowerneck -16.1289 0.203064 -2.13475
upperneck 16.6054 0.719597 0.413356
head 7.77573 0.245592 0.568491
rclavicle 5.76476e-015 5.96354e-015
rhumerus -24.5995 -20.1311 -76.2441
rradius 21.8515
rwrist 36.1515
rhand -17.1611 -26.1177
rfingers 7.12502
rthumb 9.0799 -55.9023
lclavicle 5.76476e-015 5.96354e-015
lhumerus -23.0755 13.3749 79.6466
lradius 13.1502
lwrist -7.25207
lhand -24.0558 -3.83213
lfingers 7.12502
lthumb 2.42347 26.1339
rfemur -40.8506 -2.39843 19.7562
rtibia 47.9074
rfoot -25.2266 -8.8913
rtoes 1.32158
lfemur -40.945 8.3003 -20.3862
ltibia 46.9354
lfoot -23.2621 12.1344
ltoes -5.28867
177
root 0.441794 16.6084 -15.1801 15.5183 -0.107586 -1.13626
lowerback 9.61091 -0.423169 -0.247908
upperback 4.6281 -0.550241 2.03653
thorax -0.563073 -0.299391 2.29804
lowerneck -16.1929 0.204378 -2.14057
upperneck 16.3007 0.725304 0.401088
head 7.68601 0.249208 0.564944
rclavicle 3.57812e-015 -6.75868e-015
rhumerus -24.7712 -20.3695 -76.059
rradius 21.7275
rwrist 36.3264
rhand -17.1018 -26.1627
rfingers 7.12502
rthumb 9.13711 -55.9447
lclavicle 3.57812e-015 -6.75868e-015
lhumerus -23.2784 13.9667 79.3716
lradius 12.9089
lwrist -7.88133
lhand -23.9651 -3.81326
lfingers 7.12502
lthumb 2.51103 26.1517
rfemur -41.5009 -2.43298 19.7764
rtibia 48.4957
rfoot -25.6433 -9.10993
rtoes 1.35642
lfemur -41.6068 8.05313 -20.398
ltibia 47.504
lfoot -23.5884 12.5879
ltoes -5.58522
178
root 0.43942 16.5813 -15.1898 15.8168 0.0279642 -1.11054
lowerback 9.93942 -0.454926 -0.250315
upperback 4.60113 -0.588175 2.05814
thorax -0.768777 -0.316926 2.32993
lowerneck -16.2617 0.206167 -2.14616
upperneck 15.9932 0.731321 0.390531
head 7.5964 0.253204 0.561977
rclavicle 8.15017e-015 -1.07344e-014
rhumerus -24.9533 -20.5682 -75.884
rradius 21.6289
rwrist 36.4519
rhand -17.0422 -26.1918
rfingers 7.12502
rthumb 9.19462 -55.9714
lclavicle 8.15017e-015 -1.07344e-014
lhumerus -23.487 14.5049 79.1123
lradius 12.6904
lwrist -8.44408
lhand -23.8797 -3.77914
lfingers 7.12502
lthumb 2.59355 26.1848
rfemur -42.1623 -2.45681 19.7886
rtibia 49.0856
rfoot -26.0425 -9.32093
rtoes 1.37117
lfemur -42.2774 7.79806 -20.4113
ltibia 48.0765
lfoot -23.8939 13.083
ltoes -5.91248
179
root 0.436654 16.5536 -15.1988 16.1221 0.163678 -1.0801
lowerback 10.2747 -0.484241 -0.259523
upperback 4.56823 -0.623237 2.07923
thorax -0.984141 -0.332935 2.36547
lowerneck -16.3435 0.206038 -2.15509
upperneck 15.6878 0.734901 0.384897
head 7.5099 0.256322 0.56097
rclavicle 3.18055e-015 7.95139e-016
rhumerus -25.1428 -20.7406 -75.7173
rradius 21.5529
rwrist 36.5426
rhand -16.9853 -26.2038
rfingers 7.12502
rthumb 9.24953 -55.9809
lclavicle 3.18055e-015 7.95139e-016
lhumerus -23.6978 14.972 78.8756
lradius 12.5002
lwrist -8.92008
lhand -23.7969 -3.75543
lfingers 7.12502
lthumb 2.67347 26.2076
rfemur -42.8325 -2.46561 19.7917
rtibia 49.6808
rfoot -26.4305 -9.53883
rtoes 1.38775
lfemur -42.9551 7.54 -20.4273
ltibia 48.6536
lfoot -24.1902 13.5941
ltoes -6.29701
180
root 0.433483 16.5251 -15.2072 16.4345 0.290184 -1.04413
lowerback 10.6124 -0.508125 -0.279151
upperback 4.53106 -0.65204 2.09828
thorax -1.20526 -0.345775 2.40465
lowerneck -16.4319 0.203811 -2.16517
upperneck 15.377 0.735508 0.382034
head 7.42294 0.258288 0.560742
rclavicle -4.96962e-015 2.98177e-015
rhumerus -25.3433 -20.8695 -75.5621
rradius 21.5088
rwrist 36.5842
rhand -16.9198 -26.2005
rfingers 7.12502
rthumb 9.31276 -55.9748
lclavicle -4.96962e-015 2.98177e-015
lhumerus -23.9117 15.3695 78.6631
lradius 12.3417
lwrist -9.30822
lhand -23.7454 -3.7844
lfingers 7.12502
lthumb 2.72327 26.178
rfemur -43.5139 -2.45674 19.7849
rtibia 50.2853
rfoot -26.8102 -9.77644
rtoes 1.40022
lfemur -43.6413 7.28934 -20.4489
ltibia 49.237
lfoot -24.4835 14.1011
ltoes -6.71479
181
root 0.429922 16.4957 -15.2149 16.7584 0.404934 -1.00798
lowerback 10.9517 -0.525853 -0.305706
upperback 4.48822 -0.673397 2.11635
thorax -1.43322 -0.354778 2.44638
lowerneck -16.5238 0.200417 -2.17426
upperneck 15.0587 0.734294 0.379355
head 7.3343 0.259543 0.560201
rclavicle -1.19271e-015 1.15295e-014
rhumerus -25.5459 -20.9538 -75.4235
rradius 21.4895
rwrist 36.5787
rhand -16.8508 -26.187
rfingers 7.12502
rthumb 9.37926 -55.9583
lclavicle -1.19271e-015 1.15295e-014
lhumerus -24.1267 15.678 78.4813
lradius 12.2242
lwrist -9.59335
lhand -23.6769 -3.76705
lfingers 7.12502
lthumb 2.78938 26.1945
rfemur -44.212 -2.43074 19.775
rtibia 50.9024
rfoot -27.1808 -10.0318
rtoes 1.41233
lfemur -44.3429 7.04742 -20.4701
ltibia 49.8292
lfoot -24.7665 14.6035
ltoes -7.16099
